<svg width="18" height="35" viewBox="0 0 18 35" fill="none" xmlns="http://www.w3.org/2000/svg">
<path fill-rule="evenodd" clip-rule="evenodd" d="M0 19.1366V13.1458H5.22601C5.22601 11.4849 5.19377 9.91513 5.23408 8.34805C5.29455 6.03028 5.95032 3.94442 7.80341 2.38806C9.16468 1.24459 10.7907 0.752617 12.5268 0.737872C14.2456 0.723126 15.9656 0.866562 17.6843 0.940291V6.26621C16.5354 6.27157 15.3864 6.26219 14.2388 6.28364C12.5752 6.31313 11.6601 6.96462 11.5378 8.45663C11.4142 9.99288 11.5109 11.5452 11.5109 13.1525H17.4666C17.2006 15.1874 16.9452 17.1567 16.6805 19.1889H11.4411V34.6318H5.20451V19.1366H0Z" fill="#0C3E2E"/>
</svg>
