<svg width="30" height="36" viewBox="0 0 30 36" fill="none" xmlns="http://www.w3.org/2000/svg">
<path d="M4.34281 0H6.46493L7.92094 5.45567L9.27084 0H11.4136L8.95989 8.11277V13.6495H6.85104V8.11277L4.34281 0ZM14.0604 3.49711C12.4113 3.49711 11.3178 4.58766 11.3178 6.20137V11.1368C11.3178 12.9112 12.2448 13.8352 14.0604 13.8352C15.5665 13.8352 16.7513 12.8286 16.7513 11.1368V6.20137C16.7513 4.62598 15.5768 3.49711 14.0604 3.49711ZM14.8429 11.0528C14.8429 11.601 14.5629 12.0048 14.0589 12.0048C13.5416 12.0048 13.2424 11.5819 13.2424 11.0528V6.3679C13.2424 5.81673 13.4959 5.40851 14.022 5.40851C14.5968 5.40851 14.8429 5.80494 14.8429 6.3679V11.0528ZM21.812 3.58111V11.2238C21.5836 11.5097 21.0751 11.9783 20.7111 11.9783C20.3118 11.9783 20.213 11.7042 20.213 11.3004V3.58111H18.3414V11.996C18.3414 12.9908 18.645 13.7939 19.6486 13.7939C20.2145 13.7939 21.0015 13.4992 21.812 12.5368V13.648H23.6836V3.58111H21.812ZM25.0585 24.0038C24.3983 24.0038 24.2613 24.468 24.2613 25.1282V26.0994H25.8367V25.1268C25.8381 24.4783 25.7011 24.0038 25.0585 24.0038ZM18.1277 24.0627C18.004 24.1261 17.8816 24.2234 17.7593 24.3545V30.3304C17.9052 30.4866 18.0452 30.5986 18.1823 30.6679C18.4726 30.8153 18.897 30.8256 19.0945 30.5692C19.1977 30.4336 19.2492 30.214 19.2492 29.9075V24.9573C19.2492 24.6331 19.1859 24.3884 19.0591 24.2204C18.8425 23.936 18.4402 23.905 18.1277 24.0627ZM25.2413 16.4068C21.4038 16.146 8.93337 16.146 5.10176 16.4068C0.954784 16.6898 0.465518 19.1951 0.43457 25.7899C0.465518 32.373 0.950363 34.8901 5.10176 35.173C8.93337 35.4339 21.4038 35.4339 25.2413 35.173C29.3882 34.8901 29.8775 32.3833 29.9085 25.7899C29.8775 19.2069 29.3927 16.6898 25.2413 16.4068ZM7.07946 32.1549H5.07081V21.0431H2.9929V19.1568H9.15589V21.0431H7.07798V32.1549H7.07946ZM14.221 32.1549H12.4378V31.0967C12.1092 31.4873 11.7673 31.785 11.4121 31.9883C10.4513 32.5395 9.13232 32.5262 9.13232 30.5809V22.5669H10.914V29.9178C10.914 30.3039 11.0069 30.5633 11.3885 30.5633C11.7363 30.5633 12.2197 30.1167 12.4363 29.8456V22.5669H14.2195L14.221 32.1549ZM21.084 30.1683C21.084 31.3546 20.6404 32.2772 19.4541 32.2772C18.8012 32.2772 18.2574 32.0384 17.7608 31.418V32.1549H15.9614V19.1568H17.7608V23.3421C18.1631 22.8513 18.7099 22.4461 19.3465 22.4461C20.6522 22.4461 21.0855 23.5499 21.0855 24.8497V30.1683H21.084ZM27.6729 27.5864H24.2627V29.3961C24.2627 30.1153 24.3246 30.7372 25.0408 30.7372C25.7939 30.7372 25.8381 30.2302 25.8381 29.3961V28.73H27.6729V29.4506C27.6729 31.2972 26.88 32.4172 25.0011 32.4172C23.2989 32.4172 22.428 31.1763 22.428 29.4506V25.1459C22.428 23.4821 23.5274 22.3252 25.1352 22.3252C26.8461 22.3252 27.6714 23.4128 27.6714 25.1459L27.6729 27.5864Z" fill="#0C3E2E"/>
</svg>
