<svg width="3006" height="2094" viewBox="0 0 3006 2094" fill="none" xmlns="http://www.w3.org/2000/svg">
<g clip-path="url(#clip0_1392_4122)">
<path d="M172.422 2025.65C172.422 2025.65 73.4643 1919.52 42.2809 1559.64L306.009 1552.07C300.712 1690.89 238.264 1925.6 172.422 2025.65Z" fill="#193722"/>
<path d="M173.889 60.5452C100.733 188.727 59.6045 427.215 38.0056 569.156L306.745 547.799C306.745 547.799 250.822 151.37 173.889 60.5452Z" fill="#193722"/>
<path d="M449.574 1552.07C409.56 1868.97 333.058 2083.2 245.259 2083.2C116.058 2083.2 11.3202 1619.28 11.3203 1047C11.3203 474.721 116.058 10.7973 245.259 10.7974C332.369 10.7974 408.358 221.682 448.625 534.478" stroke="#193722" stroke-width="24" stroke-miterlimit="10" stroke-linecap="round"/>
<path d="M173.917 61.1182C230.891 142.945 278.287 318.975 306.738 547.726" stroke="#193722" stroke-width="24" stroke-miterlimit="10" stroke-linecap="round"/>
<path d="M306.011 1552.07C277.526 1777.66 230.552 1951.22 174.175 2032.51" stroke="#193722" stroke-width="24" stroke-miterlimit="10" stroke-linecap="round"/>
<path d="M42.2809 1559.64C172.086 1551.97 682.305 1538.41 847.914 1585.47C1130.88 1665.89 1395.02 1646 1570.53 1491.04" stroke="#193722" stroke-width="24" stroke-miterlimit="10" stroke-linecap="round"/>
<path d="M2107.57 447.354C2245.84 449.044 2557.41 456.041 2804.67 450.918C2916.31 448.604 2993.65 363.584 2994.67 264.038C2995.66 167.642 2906 81.275 2798.74 82.809C2416.9 88.2696 1768.88 58.9572 1550.2 95.8519C1255.86 145.512 930.542 438.021 806.72 481.371C682.897 524.721 38.0059 569.156 38.0059 569.156" stroke="#193722" stroke-width="24" stroke-miterlimit="10" stroke-linecap="round"/>
<path d="M1166.74 1185.16C1444.4 1138.32 1602.29 941.821 1612.81 702.44C1708.93 678.428 1819.38 723.063 1907.72 758.559C2005.28 797.758 2121.29 758.379 2160.5 660.38C2192.65 580.005 2166.51 459.014 2057.56 419.281C1923.78 370.488 1839.87 315.64 1716.76 273.272C1639.23 246.587 1509 234.987 1286.2 309.083" stroke="#193722" stroke-width="24" stroke-miterlimit="10" stroke-linecap="round" stroke-linejoin="round"/>
<path d="M2138.56 490.323C2138.56 490.323 2081.3 609.85 1898.82 508.69" stroke="#193722" stroke-width="24" stroke-miterlimit="10" stroke-linecap="round" stroke-linejoin="round"/>
<path d="M1383.94 1105.23C1413.47 1148.58 1465.3 1180.35 1540.26 1189.01C1670.12 1204.01 1936.92 1230.09 2014.06 1226.29C2085.68 1222.77 2196.86 1184.64 2207.57 1056.23C2212.32 999.213 2189.97 940.967 2140.74 898.661" stroke="#193722" stroke-width="24" stroke-miterlimit="10" stroke-linecap="round"/>
<path d="M1583.55 856.522C1594.79 859.204 1606.66 861.295 1619.19 862.742C1749.05 877.741 2047.69 903.823 2124.84 900.026C2196.46 896.502 2307.64 858.371 2318.35 729.961C2325.39 645.521 2272.97 558.373 2161.83 524.319" stroke="#193722" stroke-width="24" stroke-miterlimit="10" stroke-linecap="round"/>
<path d="M2029.99 1226.29C2029.99 1226.29 2052.01 1280.99 2034.58 1353.24C2019.95 1413.83 1956.68 1496.43 1800.8 1496.69C1753.19 1496.77 1637.21 1491.77 1557.86 1490.87C1445.94 1489.6 1361.23 1408.85 1360.5 1311.05C1359.87 1226.88 1403.98 1181.83 1433.34 1162.67" stroke="#193722" stroke-width="24" stroke-miterlimit="10" stroke-linecap="round"/>
<path d="M1693.01 994.49C1693.01 994.49 1689.1 1125.85 1479.71 1100.5" stroke="#193722" stroke-width="24" stroke-miterlimit="10" stroke-linecap="round" stroke-linejoin="round"/>
<path d="M1694.25 1312.67C1694.25 1312.67 1671.39 1442.27 1467.67 1389.63" stroke="#193722" stroke-width="24" stroke-miterlimit="10" stroke-linecap="round" stroke-linejoin="round"/>
</g>
<defs>
<clipPath id="clip0_1392_4122">
<rect width="2094" height="3006" fill="white" transform="translate(3006) rotate(90)"/>
</clipPath>
</defs>
</svg>
