<svg width="92" height="93" viewBox="0 0 92 93" fill="none" xmlns="http://www.w3.org/2000/svg">
<path d="M65.9925 0H25.1526C18.484 0.00736208 12.0905 2.71366 7.37501 7.5251C2.65954 12.3365 0.00721524 18.8601 0 25.6645L0 67.3355C0.00721524 74.1399 2.65954 80.6635 7.37501 85.4749C12.0905 90.2863 18.484 92.9926 25.1526 93H65.9925C72.6609 92.9917 79.0538 90.2851 83.7691 85.4739C88.4844 80.6627 91.137 74.1396 91.1451 67.3355V25.6645C91.1379 18.8601 88.4856 12.3365 83.7701 7.5251C79.0546 2.71366 72.6612 0.00736208 65.9925 0V0ZM83.0596 67.3355C83.0551 71.9527 81.2555 76.3794 78.0558 79.6443C74.8561 82.9091 70.5176 84.7453 65.9925 84.7499H25.1526C20.6275 84.7453 16.2891 82.9091 13.0893 79.6443C9.88961 76.3794 8.09002 71.9527 8.08551 67.3355V25.6645C8.09002 21.0473 9.88961 16.6206 13.0893 13.3557C16.2891 10.0909 20.6275 8.25466 25.1526 8.25006H65.9925C70.5173 8.25558 74.8553 10.0921 78.0548 13.3567C81.2543 16.6214 83.0542 21.0476 83.0596 25.6645V67.3355Z" fill="#193722"/>
<path d="M45.5723 22.5396C40.9271 22.5396 36.3863 23.945 32.5239 26.5783C28.6616 29.2115 25.6513 32.9543 23.8736 37.3332C22.096 41.7121 21.6309 46.5306 22.5371 51.1792C23.4433 55.8279 25.6802 60.0979 28.9648 63.4494C32.2495 66.8009 36.4344 69.0833 40.9903 70.008C45.5463 70.9327 50.2686 70.4581 54.5602 68.6443C58.8518 66.8305 62.5199 63.7589 65.1006 59.8179C67.6813 55.877 69.0588 51.2437 69.0588 46.504C69.0525 40.1502 66.576 34.0585 62.1728 29.5657C57.7696 25.0729 51.7994 22.546 45.5723 22.5396V22.5396ZM45.5723 62.2149C42.527 62.2149 39.55 61.2935 37.0179 59.5672C34.4858 57.8408 32.5122 55.3871 31.3468 52.5163C30.1814 49.6455 29.8765 46.4866 30.4706 43.439C31.0647 40.3913 32.5312 37.5919 34.6846 35.3947C36.838 33.1975 39.5815 31.7012 42.5684 31.095C45.5552 30.4888 48.6512 30.7999 51.4647 31.989C54.2782 33.1781 56.683 35.1918 58.3749 37.7755C60.0668 40.3591 60.9699 43.3967 60.9699 46.504C60.9654 50.6694 59.3417 54.6628 56.455 57.6082C53.5684 60.5536 49.6546 62.2103 45.5723 62.2149V62.2149Z" fill="#193722"/>
<path d="M70.0477 15.542C68.6761 15.543 67.3473 16.0292 66.2877 16.9178C65.2281 17.8064 64.5032 19.0424 64.2365 20.4152C63.9698 21.788 64.1779 23.2126 64.8252 24.4464C65.4726 25.6803 66.5191 26.6469 67.7866 27.1816C69.0541 27.7164 70.4641 27.7862 71.7764 27.3792C73.0887 26.9721 74.2221 26.1134 74.9834 24.9493C75.7448 23.7852 76.087 22.3878 75.9519 20.9951C75.8167 19.6025 75.2124 18.3007 74.2421 17.3116C73.1279 16.1797 71.62 15.5435 70.0477 15.542V15.542Z" fill="#193722"/>
</svg>
