<?xml version="1.0" encoding="utf-8"?>
<!-- Generator: Adobe Illustrator 27.4.1, SVG Export Plug-In . SVG Version: 6.00 Build 0)  -->
<svg version="1.1" id="Core_Logo" xmlns="http://www.w3.org/2000/svg" xmlns:xlink="http://www.w3.org/1999/xlink" x="0px" y="0px"
	 viewBox="0 0 278.7783 78.8848" style="enable-background:new 0 0 278.7783 78.8848;" xml:space="preserve">
<style type="text/css">
	.st0{fill:#193722;}
</style>
<g>
	<path class="st0" d="M18.5635,31.2168c-0.957,0.3994-2.0732,0.5986-3.3486,0.5986c-2.1699,0-4.083-0.5898-5.7412-1.7705
		c-1.6592-1.1797-2.918-2.8701-3.7793-5.0713l-4.7842,2.0098c0.6377,1.9131,1.626,3.6045,2.9658,5.0713s2.9658,2.624,4.8799,3.4688
		s3.9863,1.2676,6.2197,1.2676c2.3916,0,4.4971-0.4385,6.3154-1.3154c1.8174-0.877,3.2451-2.0811,4.2812-3.6123
		s1.5557-3.2852,1.5557-5.2627c0-2.3926-0.7178-4.3936-2.1533-6.0039s-3.5723-2.8467-6.4111-3.708l-6.2197-1.9619
		c-1.499-0.4463-2.6152-1.1162-3.3486-2.0088c-0.7344-0.8926-1.1006-1.9141-1.1006-3.0625c0-0.9883,0.2471-1.8574,0.7422-2.6074
		c0.4941-0.749,1.1875-1.3232,2.0811-1.7227c0.8926-0.3984,1.9287-0.5977,3.1094-0.5977c1.9453,0,3.6602,0.5107,5.1436,1.5312
		c1.4824,1.0205,2.5752,2.4717,3.2764,4.3535l4.6895-2.0576c-0.5742-1.7217-1.4922-3.2363-2.751-4.5449
		C22.9248,2.9023,21.418,1.874,19.6641,1.124C17.9092,0.375,15.9639,0,13.8271,0c-2.2324,0-4.2188,0.4307-5.9561,1.292
		C6.1318,2.1533,4.7686,3.3418,3.7803,4.8564C2.791,6.3711,2.2969,8.1328,2.2969,10.1426c0,2.2969,0.7012,4.2988,2.1055,6.0039
		c1.4033,1.707,3.4443,2.9746,6.124,3.8037l6.6973,2.1055c1.4355,0.4463,2.5195,1.0527,3.2539,1.8174
		c0.7334,0.7656,1.1006,1.8027,1.1006,3.1104c0,0.957-0.2637,1.8018-0.79,2.5352C20.2617,30.2529,19.5205,30.8184,18.5635,31.2168z"
		/>
	<path class="st0" d="M47.3154,25.5957c0,1.2441-0.2471,2.3291-0.7412,3.2529c-0.4951,0.9258-1.1719,1.6436-2.0332,2.1533
		c-0.8613,0.5107-1.8662,0.7656-3.0146,0.7656c-1.1162,0-2.1045-0.2471-2.9658-0.7412s-1.5312-1.1885-2.0098-2.082
		c-0.4785-0.8926-0.7178-1.9287-0.7178-3.1094V10.334h-5.4062v15.9795c0,2.0732,0.4072,3.8994,1.2207,5.4775
		c0.8135,1.5791,1.9531,2.8076,3.4209,3.6846c1.4658,0.877,3.1729,1.3154,5.1191,1.3154c1.8809,0,3.5234-0.4307,4.9277-1.292
		c1.0287-0.6318,1.8389-1.4648,2.4395-2.4912v3.209h5.1191V10.334h-5.3584V25.5957z"/>
	<path class="st0" d="M82.7441,30.1406c1.1318-2.041,1.6982-4.3369,1.6982-6.8887s-0.5664-4.8486-1.6982-6.8896
		c-1.1328-2.041-2.6787-3.6523-4.6406-4.832s-4.1709-1.7705-6.626-1.7705c-2.042,0-3.8594,0.415-5.4541,1.2441
		c-1.2769,0.6642-2.3389,1.541-3.2061,2.6127V10.334h-5.167v35.4512h5.4062V33.1948c0.7913,0.9692,1.7668,1.7588,2.9424,2.3521
		c1.6426,0.8291,3.4688,1.2441,5.4785,1.2441c2.4873,0,4.7041-0.5977,6.6494-1.7939S81.6113,32.1826,82.7441,30.1406z
		 M77.8164,27.6289c-0.6865,1.292-1.6191,2.3047-2.7988,3.0381c-1.1807,0.7344-2.5352,1.1006-4.0664,1.1006
		c-1.5,0-2.8467-0.3662-4.043-1.1006c-1.1963-0.7334-2.1367-1.7461-2.8223-3.0381c-0.6865-1.292-1.0293-2.751-1.0293-4.377
		c0-1.627,0.3428-3.0781,1.0293-4.3545c0.6855-1.2754,1.626-2.2793,2.8223-3.0137c1.1963-0.7334,2.543-1.1006,4.043-1.1006
		c1.5312,0,2.8857,0.3672,4.0664,1.1006c1.1797,0.7344,2.1123,1.7383,2.7988,3.0137c0.6855,1.2764,1.0283,2.7275,1.0283,4.3545
		C78.8447,24.8779,78.502,26.3369,77.8164,27.6289z"/>
	<path class="st0" d="M106.6895,28.2275c-0.6387,1.1162-1.5068,2.0254-2.6074,2.7266c-1.1006,0.7021-2.4326,1.0527-3.9951,1.0527
		c-1.5312,0-2.8945-0.3662-4.0908-1.1006c-1.1953-0.7334-2.1211-1.7539-2.7744-3.0615c-0.4489-0.897-0.6915-1.9072-0.7571-3.0146
		h19.2483c0.0957-0.3828,0.1592-0.7969,0.1914-1.2441c0.0312-0.4463,0.0479-0.876,0.0479-1.291
		c0-1.6904-0.2803-3.2852-0.8379-4.7842s-1.3633-2.8301-2.416-3.9951c-1.0518-1.1641-2.3438-2.0811-3.875-2.751
		s-3.2695-1.0049-5.2148-1.0049c-2.4238,0-4.5928,0.582-6.5068,1.7461c-1.9131,1.165-3.4365,2.751-4.5684,4.7607
		c-1.1328,2.0088-1.6982,4.3223-1.6982,6.9375c0,2.5518,0.5576,4.8555,1.6738,6.9131c1.1162,2.0566,2.6709,3.6836,4.665,4.8799
		c1.9932,1.1963,4.2822,1.7939,6.8652,1.7939c1.7539,0,3.373-0.2793,4.8564-0.8369c1.4824-0.5576,2.7578-1.3232,3.8271-2.2969
		c1.0684-0.9727,1.8574-2.0645,2.3682-3.2773L106.6895,28.2275z M93.1973,18.4434c0.6055-1.3232,1.4668-2.3447,2.584-3.0615
		c1.1162-0.7178,2.3916-1.0771,3.8271-1.0771s2.6865,0.3594,3.7559,1.0771c1.0684,0.7168,1.8662,1.6904,2.3916,2.918
		c0.2944,0.6875,0.4424,1.4326,0.4722,2.2246H92.5884C92.7107,19.7695,92.9095,19.0728,93.1973,18.4434z"/>
	<path class="st0" d="M121.041,21.29c0-2.041,0.5508-3.6123,1.6514-4.7129c1.0996-1.0996,2.543-1.6504,4.3291-1.6504h2.249V9.999
		h-1.5791c-1.7861,0-3.3174,0.375-4.5928,1.124c-0.9688,0.5693-1.7327,1.4122-2.2969,2.5231V10.334h-5.167v25.8828h5.4062V21.29z"/>
	<path class="st0" d="M137.9775,20.9551c0-1.2754,0.2393-2.376,0.7178-3.3008s1.1562-1.6348,2.0332-2.1299
		c0.877-0.4932,1.874-0.7412,2.9902-0.7412s2.1123,0.248,2.9902,0.7412c0.877,0.4951,1.5547,1.1963,2.0332,2.1055
		s0.7178,2.0176,0.7178,3.3252v15.2617h5.3584V19.5195c0-1.9131-0.415-3.6035-1.2441-5.0713
		c-0.8291-1.4668-1.9775-2.6143-3.4443-3.4443c-1.4678-0.8291-3.1572-1.2441-5.0713-1.2441c-1.8506,0-3.4766,0.4229-4.8799,1.2676
		c-1.017,0.6124-1.8259,1.436-2.4404,2.4579V10.334h-5.167v25.8828h5.4062V20.9551z"/>
	<path class="st0" d="M178.3818,11.5059c-2.0254-1.1641-4.3135-1.7461-6.8652-1.7461c-2.5195,0-4.8008,0.582-6.8418,1.7461
		c-2.041,1.165-3.668,2.7598-4.8799,4.7842c-1.2119,2.0264-1.8174,4.3467-1.8174,6.9619c0,2.583,0.6055,4.8955,1.8174,6.9365
		c1.2119,2.042,2.8467,3.6523,4.9043,4.832c2.0566,1.1807,4.3291,1.7705,6.8174,1.7705c2.4873,0,4.752-0.582,6.7939-1.7461
		c2.04-1.1641,3.667-2.7666,4.8799-4.8086c1.2119-2.041,1.8174-4.3691,1.8174-6.9844s-0.5977-4.9355-1.7939-6.9619
		C182.0176,14.2656,180.4072,12.6709,178.3818,11.5059z M178.3818,27.6289c-0.6865,1.292-1.6191,2.3047-2.7988,3.0381
		c-1.1797,0.7344-2.5352,1.1006-4.0664,1.1006c-1.5,0-2.8467-0.3662-4.043-1.1006c-1.1963-0.7334-2.1367-1.7461-2.8223-3.0381
		c-0.6865-1.292-1.0283-2.751-1.0283-4.377c0-1.627,0.3418-3.0781,1.0283-4.3545c0.6855-1.2754,1.626-2.2793,2.8223-3.0137
		c1.1963-0.7334,2.543-1.1006,4.043-1.1006c1.5312,0,2.8867,0.3672,4.0664,1.1006c1.1797,0.7344,2.1123,1.7383,2.7988,3.0137
		c0.6855,1.2764,1.0283,2.7275,1.0283,4.3545C179.4102,24.8779,179.0674,26.3369,178.3818,27.6289z"/>
	<path class="st0" d="M195.6768,11.123c-0.9688,0.5693-1.7327,1.4122-2.2969,2.5231V10.334h-5.167v25.8828h5.4062V21.29
		c0-2.041,0.5508-3.6123,1.6514-4.7129c1.0996-1.0996,2.543-1.6504,4.3291-1.6504h2.249V9.999h-1.5791
		C198.4834,9.999,196.9521,10.374,195.6768,11.123z"/>
	<path class="st0" d="M238.5674,11.0039c-1.4512-0.8291-3.0693-1.2441-4.8555-1.2441c-2.042,0-3.8516,0.5107-5.4307,1.5312
		c-1.0922,0.7063-1.9767,1.6821-2.6797,2.8927c-0.6018-1.0879-1.4341-2.0211-2.5352-2.7736
		c-1.6104-1.0996-3.4521-1.6504-5.5254-1.6504c-1.8506,0-3.4922,0.4473-4.9277,1.3398c-0.9789,0.6094-1.7336,1.4344-2.2969,2.4436
		V10.334h-5.167v25.8828h5.4062V20.9551c0-1.2754,0.2314-2.376,0.6943-3.3008c0.4619-0.9248,1.1074-1.6348,1.9375-2.1299
		c0.8291-0.4932,1.7861-0.7412,2.8701-0.7412c1.1162,0,2.0811,0.248,2.8945,0.7412c0.8135,0.4951,1.4512,1.1963,1.9141,2.1055
		c0.4619,0.9092,0.6934,2.0176,0.6934,3.3252v15.2617h5.3584V20.9551c0-1.2754,0.2393-2.376,0.7178-3.3008
		s1.1318-1.6348,1.9619-2.1299c0.8291-0.4932,1.7852-0.7412,2.8701-0.7412c1.084,0,2.0332,0.248,2.8467,0.7412
		c0.8135,0.4951,1.4512,1.1963,1.9141,2.1055c0.4619,0.9092,0.6934,2.0176,0.6934,3.3252v15.2617h5.4062V19.4717
		c0-1.8809-0.4307-3.5557-1.292-5.0234C241.1748,12.9814,240.0186,11.834,238.5674,11.0039z"/>
	<path class="st0" d="M263.876,10.9082c-1.5791-0.7656-3.3896-1.1484-5.4307-1.1484c-1.626,0-3.166,0.2715-4.6162,0.8135
		c-1.4521,0.543-2.7197,1.2998-3.8037,2.2725c-1.085,0.9736-1.8662,2.0977-2.3447,3.373l4.4971,2.248
		c0.5107-1.1797,1.2998-2.1445,2.3691-2.8945c1.0674-0.749,2.3203-1.124,3.7549-1.124c1.5625,0,2.8145,0.4072,3.7559,1.2197
		c0.9404,0.8135,1.4111,1.8584,1.4111,3.1338v0.9875l-8.2285,1.3572c-1.9785,0.3193-3.6201,0.8613-4.9277,1.627
		c-1.3086,0.7646-2.2725,1.7061-2.8945,2.8223c-0.6221,1.1172-0.9326,2.377-0.9326,3.7793c0,1.5,0.3662,2.7988,1.0996,3.8994
		s1.7627,1.9619,3.0859,2.584c1.3232,0.6211,2.8623,0.9326,4.6172,0.9326c1.4668,0,2.7988-0.208,3.9951-0.6221
		c1.1953-0.4141,2.2637-1.0049,3.2051-1.7705c0.4449-0.3623,0.8496-0.759,1.2197-1.1853v3.0037h5.167v-17.415
		c0-1.7852-0.4385-3.3564-1.3154-4.7119C266.6816,12.7344,265.4541,11.6738,263.876,10.9082z M262.5596,29.0166
		c-0.6055,1.0693-1.459,1.9219-2.5596,2.5596c-1.0996,0.6387-2.3838,0.957-3.8506,0.957c-1.1807,0-2.1455-0.3115-2.8945-0.9336
		c-0.75-0.6211-1.124-1.4268-1.124-2.416c0-1.0205,0.334-1.8574,1.0039-2.5117c0.6699-0.6533,1.7227-1.1074,3.1582-1.3633
		l7.1758-1.2539v1.3975C263.4688,26.7607,263.166,27.9482,262.5596,29.0166z"/>
	<rect x="273.3721" class="st0" width="5.4062" height="36.2168"/>
	<path class="st0" d="M17.6543,63.7188h10.9561v0.1436c0,1.9775-0.4951,3.708-1.4834,5.1904
		c-0.9883,1.4834-2.3047,2.6318-3.9463,3.4453c-1.6436,0.8125-3.4531,1.2197-5.4307,1.2197c-2.3604,0-4.4492-0.5508-6.2676-1.6504
		c-1.8174-1.1006-3.2451-2.6475-4.2812-4.6406c-1.0371-1.9932-1.5557-4.3135-1.5557-6.9619c0-2.6465,0.5029-4.959,1.5078-6.9365
		c1.0039-1.9775,2.416-3.5244,4.2334-4.6406c1.8184-1.1162,3.9072-1.6748,6.2676-1.6748c2.3926,0,4.4326,0.5977,6.124,1.7939
		c1.6904,1.1963,2.9014,2.7676,3.6357,4.7129l5.0234-2.4404c-0.6064-1.626-1.5947-3.1338-2.9658-4.5205
		c-1.3721-1.3877-3.0547-2.5117-5.0479-3.373s-4.25-1.292-6.7695-1.292c-2.5518,0-4.8965,0.4541-7.0332,1.3633
		s-4.0029,2.1855-5.5967,3.8271c-1.5957,1.6436-2.8311,3.5889-3.708,5.8369C0.4385,55.3701,0,57.8184,0,60.4648
		c0,2.6797,0.4463,5.1357,1.3398,7.3682c0.8926,2.2334,2.1445,4.1709,3.7559,5.8125c1.6104,1.6436,3.4922,2.9268,5.6455,3.8516
		s4.4893,1.3877,7.0088,1.3877c2.1689,0,4.2412-0.3672,6.2197-1.1006c1.9775-0.7334,3.7314-1.8184,5.2627-3.2529
		c1.5312-1.4355,2.7422-3.1816,3.6357-5.2393c0.8926-2.0566,1.3398-4.3926,1.3398-7.0088v-3.3486H17.6543V63.7188z"/>
	<path class="st0" d="M45.6416,53.2168c-0.9688,0.5693-1.7327,1.4121-2.2969,2.5229v-3.312h-5.167v25.8828h5.4062V63.3838
		c0-2.041,0.5508-3.6123,1.6514-4.7129c1.0996-1.0996,2.543-1.6504,4.3291-1.6504h2.249v-4.9277h-1.5791
		C48.4482,52.0928,46.917,52.4678,45.6416,53.2168z"/>
	<path class="st0" d="M74.7305,55.6094c-1.0518-1.1641-2.3438-2.0811-3.875-2.751s-3.2695-1.0049-5.2148-1.0049
		c-2.4238,0-4.5928,0.582-6.5068,1.7461c-1.9131,1.165-3.4365,2.751-4.5684,4.7607c-1.1328,2.0088-1.6982,4.3223-1.6982,6.9375
		c0,2.5518,0.5576,4.8555,1.6738,6.9131c1.1162,2.0566,2.6709,3.6836,4.665,4.8799c1.9932,1.1963,4.2822,1.7939,6.8652,1.7939
		c1.7539,0,3.373-0.2793,4.8564-0.8369c1.4824-0.5576,2.7578-1.3232,3.8271-2.2969c1.0684-0.9727,1.8574-2.0645,2.3682-3.2773
		l-4.4014-2.1523c-0.6387,1.1162-1.5068,2.0254-2.6074,2.7266c-1.1006,0.7021-2.4326,1.0527-3.9951,1.0527
		c-1.5312,0-2.8945-0.3662-4.0908-1.1006c-1.1953-0.7334-2.1211-1.7539-2.7744-3.0615c-0.4489-0.897-0.6915-1.9072-0.7571-3.0146
		h19.2483c0.0957-0.3828,0.1592-0.7969,0.1914-1.2441c0.0312-0.4463,0.0479-0.876,0.0479-1.291
		c0-1.6904-0.2803-3.2852-0.8379-4.7842S75.7832,56.7744,74.7305,55.6094z M59.2295,60.5371
		c0.6055-1.3232,1.4668-2.3447,2.584-3.0615c1.1162-0.7178,2.3916-1.0771,3.8271-1.0771s2.6865,0.3594,3.7559,1.0771
		c1.0684,0.7168,1.8662,1.6904,2.3916,2.918c0.2944,0.6875,0.4424,1.4326,0.4722,2.2246H58.6206
		C58.7429,61.8633,58.9418,61.1665,59.2295,60.5371z"/>
	<path class="st0" d="M102.4785,55.6094c-1.0518-1.1641-2.3438-2.0811-3.875-2.751s-3.2695-1.0049-5.2148-1.0049
		c-2.4238,0-4.5928,0.582-6.5068,1.7461c-1.9131,1.165-3.4365,2.751-4.5684,4.7607c-1.1328,2.0088-1.6982,4.3223-1.6982,6.9375
		c0,2.5518,0.5576,4.8555,1.6738,6.9131c1.1162,2.0566,2.6709,3.6836,4.665,4.8799c1.9932,1.1963,4.2822,1.7939,6.8652,1.7939
		c1.7539,0,3.373-0.2793,4.8564-0.8369c1.4824-0.5576,2.7578-1.3232,3.8271-2.2969c1.0684-0.9727,1.8574-2.0645,2.3682-3.2773
		l-4.4014-2.1523c-0.6387,1.1162-1.5068,2.0254-2.6074,2.7266c-1.1006,0.7021-2.4326,1.0527-3.9951,1.0527
		c-1.5312,0-2.8945-0.3662-4.0908-1.1006c-1.1953-0.7334-2.1211-1.7539-2.7744-3.0615c-0.4489-0.897-0.6915-1.9072-0.7571-3.0146
		h19.2483c0.0957-0.3828,0.1592-0.7969,0.1914-1.2441c0.0312-0.4463,0.0479-0.876,0.0479-1.291
		c0-1.6904-0.2803-3.2852-0.8379-4.7842S103.5312,56.7744,102.4785,55.6094z M86.9775,60.5371
		c0.6055-1.3232,1.4668-2.3447,2.584-3.0615c1.1162-0.7178,2.3916-1.0771,3.8271-1.0771s2.6865,0.3594,3.7559,1.0771
		c1.0684,0.7168,1.8662,1.6904,2.3916,2.918c0.2944,0.6875,0.4424,1.4326,0.4722,2.2246H86.3687
		C86.491,61.8633,86.6898,61.1665,86.9775,60.5371z"/>
	<path class="st0" d="M126.9736,53.0977c-1.4678-0.8291-3.1572-1.2441-5.0713-1.2441c-1.8506,0-3.4766,0.4229-4.8799,1.2676
		c-1.017,0.6123-1.8259,1.436-2.4404,2.458v-3.1514h-5.167v25.8828h5.4062V63.0488c0-1.2754,0.2393-2.376,0.7178-3.3008
		s1.1562-1.6348,2.0332-2.1299c0.877-0.4932,1.874-0.7412,2.9902-0.7412s2.1123,0.248,2.9902,0.7412
		c0.877,0.4951,1.5547,1.1963,2.0332,2.1055s0.7178,2.0176,0.7178,3.3252v15.2617h5.3584V61.6133
		c0-1.9131-0.415-3.6035-1.2441-5.0713C129.5889,55.0752,128.4404,53.9277,126.9736,53.0977z"/>
	<path class="st0" d="M141.9482,57.1885c0.7012-0.5576,1.6426-0.8379,2.8232-0.8379c1.3711,0,2.6074,0.3672,3.707,1.1006
		c1.1006,0.7344,1.9062,1.7227,2.416,2.9658l4.1631-1.9609c-0.7656-2.0732-2.0742-3.6914-3.9238-4.8564
		c-1.8496-1.1641-3.9551-1.7461-6.3145-1.7461c-1.7549,0-3.334,0.3193-4.7363,0.957c-1.4043,0.6387-2.5049,1.5391-3.3018,2.7031
		c-0.7979,1.165-1.1963,2.5283-1.1963,4.0908c0,1.7217,0.5508,3.2285,1.6514,4.5205c1.0996,1.292,2.7666,2.2568,4.999,2.8945
		l4.0664,1.1484c0.542,0.1279,1.0771,0.3193,1.6035,0.5742c0.5254,0.2559,0.9639,0.582,1.3154,0.9805
		c0.3506,0.3994,0.5264,0.917,0.5264,1.5547c0,0.9893-0.3994,1.7705-1.1963,2.3447c-0.7979,0.5742-1.835,0.8613-3.1094,0.8613
		c-1.5,0-2.8633-0.4307-4.0908-1.292c-1.2285-0.8613-2.1934-2.0254-2.8945-3.4922l-4.1621,1.9609
		c0.7969,2.2012,2.1924,3.9551,4.1855,5.2627c1.9932,1.3086,4.3135,1.9619,6.9619,1.9619c1.9131,0,3.5879-0.3271,5.0234-0.9805
		c1.4346-0.6533,2.5596-1.5625,3.3721-2.7275c0.8135-1.1641,1.2207-2.5117,1.2207-4.043c0-1.7852-0.5742-3.3242-1.7227-4.6162
		s-2.791-2.2402-4.9277-2.8467l-4.21-1.2441c-0.543-0.1592-1.0693-0.3584-1.5791-0.5977c-0.5107-0.2393-0.9258-0.5576-1.2441-0.957
		c-0.3193-0.3984-0.4785-0.9014-0.4785-1.5068C140.8955,58.4727,141.2461,57.7461,141.9482,57.1885z"/>
	<path class="st0" d="M168.8682,53.2822c0.2793-0.4238,0.4189-0.96,0.4189-1.6084c0-0.9824-0.3135-1.7207-0.9385-2.2119
		c-0.626-0.4912-1.4072-0.7373-2.3457-0.7373h-3.7881v9.0498h2.1455V54.623h1.2402l1.7764,3.1514h2.3457l-2.0439-3.4863
		C168.1924,54.043,168.5889,53.707,168.8682,53.2822z M166.8408,52.4619c-0.2012,0.2119-0.4814,0.3184-0.8379,0.3184h-1.6426
		v-2.1787h1.6426c0.3564,0,0.6367,0.1006,0.8379,0.3018c0.2002,0.2012,0.3008,0.458,0.3008,0.7705
		C167.1416,51.9873,167.041,52.249,166.8408,52.4619z"/>
	<path class="st0" d="M171.7002,47.2158c-0.7822-0.7812-1.6924-1.3955-2.7314-1.8428s-2.1514-0.6709-3.335-0.6709
		c-1.5869,0-3.0332,0.3857-4.3408,1.1562c-1.3066,0.7715-2.3457,1.8047-3.1162,3.1006c-0.7715,1.2959-1.1572,2.7373-1.1572,4.3232
		c0,1.5645,0.3857,3,1.1572,4.3076c0.7705,1.3066,1.8096,2.3457,3.1162,3.1172c1.3076,0.7705,2.7539,1.1562,4.3408,1.1562
		c1.5859,0,3.0273-0.3857,4.3232-1.1562c1.2959-0.7715,2.3301-1.8105,3.1006-3.1172c0.7705-1.3076,1.1562-2.7432,1.1562-4.3076
		c0-1.1836-0.2236-2.2949-0.6699-3.334C173.0967,48.9092,172.4824,47.999,171.7002,47.2158z M171.248,56.584
		c-0.5928,0.9941-1.374,1.7764-2.3467,2.3467c-0.9717,0.5693-2.0605,0.8545-3.2676,0.8545s-2.3076-0.29-3.3018-0.8721
		c-0.9941-0.5801-1.7822-1.3623-2.3623-2.3457c-0.582-0.9834-0.8721-2.0781-0.8721-3.2852c0-1.2061,0.29-2.3008,0.8721-3.2842
		c0.5801-0.9834,1.3623-1.7646,2.3457-2.3457s2.0889-0.8721,3.3184-0.8721c1.207,0,2.2959,0.291,3.2676,0.8721
		c0.9727,0.5811,1.7539,1.3623,2.3467,2.3457c0.5918,0.9834,0.8877,2.0781,0.8877,3.2842
		C172.1357,54.4893,171.8398,55.5898,171.248,56.584z"/>
</g>
</svg>
